REM DIRINDEX 1\2,1\3,1\4
REM DIRNAME folder01,folder02,folder03,folder04
TITLE ""
FILE "008 008_TOEFL_3900.mp3" MP3
  TRACK 01 AUDIO
    TITLE "2:cjc151_0312"
    INDEX 01 00:00:00
  TRACK 02 AUDIO
    TITLE "0:"
    INDEX 01 00:01:28
  TRACK 03 AUDIO
    TITLE "3:cjc151_0313"
    INDEX 01 00:03:12
  TRACK 04 AUDIO
    TITLE "0:"
    INDEX 01 00:07:52
  TRACK 05 AUDIO
    TITLE "2:cjc151_0314"
    INDEX 01 00:09:42
  TRACK 06 AUDIO
    TITLE "0:"
    INDEX 01 00:10:37
  TRACK 07 AUDIO
    TITLE "3:cjc151_0315"
    INDEX 01 00:12:16
  TRACK 08 AUDIO
    TITLE "0:"
    INDEX 01 00:15:60
  TRACK 09 AUDIO
    TITLE "2:cjc151_0316"
    INDEX 01 00:17:41
  TRACK 10 AUDIO
    TITLE "0:"
    INDEX 01 00:18:60
  TRACK 11 AUDIO
    TITLE "3:cjc151_0317"
    INDEX 01 00:20:39
  TRACK 12 AUDIO
    TITLE "0:"
    INDEX 01 00:25:07
  TRACK 13 AUDIO
    TITLE "2:cjc151_0318"
    INDEX 01 00:26:62
  TRACK 14 AUDIO
    TITLE "0:"
    INDEX 01 00:27:63
  TRACK 15 AUDIO
    TITLE "3:cjc151_0319"
    INDEX 01 00:29:42
  TRACK 16 AUDIO
    TITLE "0:"
    INDEX 01 00:33:15
  TRACK 17 AUDIO
    TITLE "2:cjc151_0320"
    INDEX 01 00:34:69
  TRACK 18 AUDIO
    TITLE "0:"
    INDEX 01 00:35:72
  TRACK 19 AUDIO
    TITLE "3:cjc151_0321"
    INDEX 01 00:37:52
  TRACK 20 AUDIO
    TITLE "0:"
    INDEX 01 00:40:40
  TRACK 21 AUDIO
    TITLE "2:cjc151_0322"
    INDEX 01 00:42:19
  TRACK 22 AUDIO
    TITLE "0:"
    INDEX 01 00:43:27
  TRACK 23 AUDIO
    TITLE "3:cjc151_0323"
    INDEX 01 00:45:04
  TRACK 24 AUDIO
    TITLE "0:"
    INDEX 01 00:48:12
  TRACK 25 AUDIO
    TITLE "2:cjc151_0324"
    INDEX 01 00:49:69
  TRACK 26 AUDIO
    TITLE "0:"
    INDEX 01 00:51:03
  TRACK 27 AUDIO
    TITLE "3:cjc151_0325"
    INDEX 01 00:52:59
  TRACK 28 AUDIO
    TITLE "0:"
    INDEX 01 00:57:35
  TRACK 29 AUDIO
    TITLE "2:cjc151_0326"
    INDEX 01 00:59:14
  TRACK 30 AUDIO
    TITLE "0:"
    INDEX 01 01:00:45
  TRACK 31 AUDIO
    TITLE "3:cjc151_0327"
    INDEX 01 01:02:26
  TRACK 32 AUDIO
    TITLE "0:"
    INDEX 01 01:06:32
  TRACK 33 AUDIO
    TITLE "2:cjc151_0328"
    INDEX 01 01:08:11
  TRACK 34 AUDIO
    TITLE "0:"
    INDEX 01 01:09:26
  TRACK 35 AUDIO
    TITLE "3:cjc151_0329"
    INDEX 01 01:11:03
  TRACK 36 AUDIO
    TITLE "0:"
    INDEX 01 01:15:11
  TRACK 37 AUDIO
    TITLE "2:cjc151_0330"
    INDEX 01 01:16:67
  TRACK 38 AUDIO
    TITLE "0:"
    INDEX 01 01:17:73
  TRACK 39 AUDIO
    TITLE "3:cjc151_0331"
    INDEX 01 01:19:52
  TRACK 40 AUDIO
    TITLE "0:"
    INDEX 01 01:24:04
  TRACK 41 AUDIO
    TITLE "2:cjc151_0332"
    INDEX 01 01:25:57
  TRACK 42 AUDIO
    TITLE "0:"
    INDEX 01 01:26:68
  TRACK 43 AUDIO
    TITLE "3:cjc151_0333"
    INDEX 01 01:28:47
  TRACK 44 AUDIO
    TITLE "0:"
    INDEX 01 01:33:29
  TRACK 45 AUDIO
    TITLE "2:cjc151_0334"
    INDEX 01 01:35:08
  TRACK 46 AUDIO
    TITLE "0:"
    INDEX 01 01:36:25
  TRACK 47 AUDIO
    TITLE "3:cjc151_0335"
    INDEX 01 01:38:04
  TRACK 48 AUDIO
    TITLE "0:"
    INDEX 01 01:41:54
  TRACK 49 AUDIO
    TITLE "2:cjc151_0336"
    INDEX 01 01:43:33
  TRACK 50 AUDIO
    TITLE "0:"
    INDEX 01 01:44:36
  TRACK 51 AUDIO
    TITLE "3:cjc151_0337"
    INDEX 01 01:46:18
  TRACK 52 AUDIO
    TITLE "0:"
    INDEX 01 01:48:71
  TRACK 53 AUDIO
    TITLE "2:cjc151_0338"
    INDEX 01 01:50:53
  TRACK 54 AUDIO
    TITLE "0:"
    INDEX 01 01:51:54
  TRACK 55 AUDIO
    TITLE "3:cjc151_0339"
    INDEX 01 01:53:35
  TRACK 56 AUDIO
    TITLE "0:"
    INDEX 01 01:57:45
  TRACK 57 AUDIO
    TITLE "2:cjc151_0340"
    INDEX 01 01:59:22
  TRACK 58 AUDIO
    TITLE "0:"
    INDEX 01 02:00:37
  TRACK 59 AUDIO
    TITLE "3:cjc151_0341"
    INDEX 01 02:02:17
  TRACK 60 AUDIO
    TITLE "0:"
    INDEX 01 02:05:13
  TRACK 61 AUDIO
    TITLE "2:cjc151_0342"
    INDEX 01 02:06:67
  TRACK 62 AUDIO
    TITLE "0:"
    INDEX 01 02:07:71
  TRACK 63 AUDIO
    TITLE "3:cjc151_0343"
    INDEX 01 02:09:50
  TRACK 64 AUDIO
    TITLE "0:"
    INDEX 01 02:13:63
  TRACK 65 AUDIO
    TITLE "2:cjc151_0344"
    INDEX 01 02:15:45
  TRACK 66 AUDIO
    TITLE "0:"
    INDEX 01 02:16:46
  TRACK 67 AUDIO
    TITLE "3:cjc151_0345"
    INDEX 01 02:18:21
  TRACK 68 AUDIO
    TITLE "0:"
    INDEX 01 02:22:07
  TRACK 69 AUDIO
    TITLE "2:cjc151_0346"
    INDEX 01 02:23:62
  TRACK 70 AUDIO
    TITLE "0:"
    INDEX 01 02:24:73
  TRACK 71 AUDIO
    TITLE "3:cjc151_0347"
    INDEX 01 02:26:52
  TRACK 72 AUDIO
    TITLE "0:"
    INDEX 01 02:30:03
  TRACK 73 AUDIO
    TITLE "2:cjc151_0348"
    INDEX 01 02:31:57
  TRACK 74 AUDIO
    TITLE "0:"
    INDEX 01 02:32:57
  TRACK 75 AUDIO
    TITLE "3:cjc151_0349"
    INDEX 01 02:34:36
  TRACK 76 AUDIO
    TITLE "0:"
    INDEX 01 02:37:68
  TRACK 77 AUDIO
    TITLE "2:cjc151_0350"
    INDEX 01 02:39:51
  TRACK 78 AUDIO
    TITLE "0:"
    INDEX 01 02:40:68
  TRACK 79 AUDIO
    TITLE "3:cjc151_0351"
    INDEX 01 02:42:47
  TRACK 80 AUDIO
    TITLE "0:"
    INDEX 01 02:46:43
  TRACK 81 AUDIO
    TITLE "2:cjc151_0352"
    INDEX 01 02:48:23
  TRACK 82 AUDIO
    TITLE "0:"
    INDEX 01 02:49:28
  TRACK 83 AUDIO
    TITLE "3:cjc151_0353"
    INDEX 01 02:51:07
  TRACK 84 AUDIO
    TITLE "0:"
    INDEX 01 02:54:45
  TRACK 85 AUDIO
    TITLE "2:cjc151_0354"
    INDEX 01 02:56:24
  TRACK 86 AUDIO
    TITLE "0:"
    INDEX 01 02:57:23
  TRACK 87 AUDIO
    TITLE "3:cjc151_0355"
    INDEX 01 02:59:05
  TRACK 88 AUDIO
    TITLE "0:"
    INDEX 01 03:02:66
